<?xml version="1.0" encoding="utf-8"?>
<!-- Generator: Adobe Illustrator 21.1.0, SVG Export Plug-In . SVG Version: 6.00 Build 0)  -->
<svg version="1.1" id="Layer_1" xmlns="http://www.w3.org/2000/svg" xmlns:xlink="http://www.w3.org/1999/xlink" x="0px" y="0px"
	 viewBox="0 0 183 197" style="enable-background:new 0 0 183 197;" xml:space="preserve">
<style type="text/css">
	.st0{fill:#E88634;}
	.st1{fill:#F9CB52;}
	.st2{fill:#F4A73E;}
</style>
<title>Slice 1</title>
<g>
	<path class="st0" d="M1,98c0.6,20.7,40.7,37,90,37v-8c-39.7-0.2-81.3-12.4-82-29H1z"/>
	<path class="st1" d="M135.5,21.8c-18.3-9.8-52.4,16.7-77,59.4l6.9,4c20-34.3,51.4-64.3,66.1-56.5L135.5,21.8L135.5,21.8z"/>
	<path class="st0" d="M1,98c0.6-20.7,40.7-37,90-37v8C51.3,69.2,9.7,81.4,9,98H1z"/>
	<path class="st2" d="M46,20c-17.6,10.9-11.7,53.7,13,96.4l6.9-4C46.3,78,36,35.8,50,26.9L46,20L46,20z"/>
	<path class="st1" d="M46,176.4C28.4,165.5,34.3,122.7,59,80l6.9,4c-19.7,34.5-30,76.6-15.9,85.5L46,176.4L46,176.4z"/>
	<path class="st2" d="M45,20.5c18.3-9.8,52.4,16.7,77,59.4l-6.9,4C95.1,49.7,63.7,19.7,49,27.4L45,20.5z"/>
	<path class="st0" d="M181,98c-0.6-20.7-40.7-37-90-37v8c39.7,0.2,81.3,12.4,82,29H181z"/>
	<path class="st1" d="M45.2,176.5c0.1,0.1,0.2,0.1,0.3,0.2c18.1,10.5,52.6-16.1,77.5-59.2l-6.9-4.1C96,148,64.2,178.2,49.6,169.8
		c-0.1-0.1-0.3-0.2-0.4-0.3L45.2,176.5L45.2,176.5z"/>
	<path class="st2" d="M136,175.9c-18.3,9.8-52.4-16.7-77-59.4l-0.3-0.4l6.8-4.2c20,34.5,51.6,64.9,66.4,57.1L136,175.9L136,175.9z"
		/>
	<path class="st0" d="M181,97c0,0.2,0,0.3,0,0.5c0,20.9-40.3,37.5-90,37.5v-8c40-0.2,82-12.6,82-29.4c0-0.2,0-0.4,0-0.6H181z"/>
	<path class="st2" d="M135.4,176.4c17.6-10.9,11.7-53.7-13-96.4l-0.4-0.8l-7,3.8v0.1c20,34.6,30.5,77.2,16.5,86.3L135.4,176.4z"/>
	<path class="st1" d="M134.8,21.2c17.7,10.7,12.4,53.5-11.7,96.6l-7-3.9c19.2-34.8,29-77,14.7-85.7
		C130.9,28.2,134.8,21.2,134.8,21.2z"/>
</g>
<g>
	<path class="st2" d="M98.8,106.5c-0.1-2.8-1.2-5-2.4-6.9c0.2,1,0,2.4-0.3,3.1c-3.6-4-3.5-5.6-3.8-10.1c-2.5,2.6-6.6,8.8-6.6,13.5
		c0,2.5,0.9,5.8,4.5,7.3c0.6,0.2,1.3,0.3,1.9,0.3c0.7,0,1.3-0.1,2-0.3c0,0,0,0,0,0C96.6,112.5,98.8,109.5,98.8,106.5z"/>
	<path class="st1" d="M96.4,108.5C96,107,95,105.9,94,105c0.3,0.5,0.4,1.3,0.3,1.8c-2.6-1.7-2.8-2.6-3.6-5.1c-1,1.8-2.4,5.9-1.7,8.5
		c0.4,1.4,1.3,3.1,3.6,3.4c0.4,0,0.8,0,1.1-0.1c0.4-0.1,0.7-0.3,1-0.5c0,0,0,0,0,0C96.1,112.2,96.9,110.2,96.4,108.5z"/>
	<path class="st0" d="M97.5,89c0.2,0.8,0.3,1.9,0.5,3c0.3,2,0.4,4,0.2,4.9c-1-4.1-3.1-6-4.8-8.4c-1.4-1.9-2.6-4.2-2.6-8.3
		c-6.2,7.4-6.9,13.4-7.4,16.7c-0.3-1.4,0.3-5.8,0.7-8c0,0-4.5,5.7-4.5,13.8c0,5.8,4,10.7,10.6,10.7c0,0,0,0,0,0
		c-3.6-1.5-4.5-4.8-4.5-7.3c0-4.8,4-11,6.6-13.5c0.3,4.5,0.3,6.1,3.8,10.1c0.3-0.8,0.5-2.1,0.3-3.1c1.3,1.9,2.4,4.1,2.4,6.9
		c0.1,3-2.2,6.1-4.7,6.9c0,0,0,0,0,0c2.3-0.3,7.8-4,8.3-10.7C103,94.6,97.5,89,97.5,89z"/>
</g>
</svg>
